<svg width="30" height="30" viewBox="0 0 30 30" fill="none" xmlns="http://www.w3.org/2000/svg">
<path fill-rule="evenodd" clip-rule="evenodd" d="M6.375 8.25C6.07663 8.25 5.79048 8.36853 5.5795 8.5795C5.36853 8.79048 5.25 9.07663 5.25 9.375V22.125C5.25 22.746 5.754 23.25 6.375 23.25H19.125C19.4234 23.25 19.7095 23.1315 19.9205 22.9205C20.1315 22.7095 20.25 22.4234 20.25 22.125V16.125C20.25 15.8266 20.3685 15.5405 20.5795 15.3295C20.7905 15.1185 21.0766 15 21.375 15C21.6734 15 21.9595 15.1185 22.1705 15.3295C22.3815 15.5405 22.5 15.8266 22.5 16.125V22.125C22.5 23.0201 22.1444 23.8785 21.5115 24.5115C20.8785 25.1444 20.0201 25.5 19.125 25.5H6.375C5.47989 25.5 4.62145 25.1444 3.98851 24.5115C3.35558 23.8785 3 23.0201 3 22.125V9.375C3 8.47989 3.35558 7.62145 3.98851 6.98851C4.62145 6.35558 5.47989 6 6.375 6H13.875C14.1734 6 14.4595 6.11853 14.6705 6.3295C14.8815 6.54048 15 6.82663 15 7.125C15 7.42337 14.8815 7.70952 14.6705 7.9205C14.4595 8.13147 14.1734 8.25 13.875 8.25H6.375Z" fill="white"/>
<path fill-rule="evenodd" clip-rule="evenodd" d="M9.29124 19.1295C9.39037 19.2392 9.51016 19.3283 9.64374 19.3917C9.77733 19.455 9.92209 19.4915 10.0698 19.4988C10.2174 19.5062 10.3651 19.4844 10.5044 19.4347C10.6436 19.385 10.7717 19.3083 10.8812 19.209L24.7502 6.66V10.875C24.7502 11.1734 24.8688 11.4595 25.0797 11.6705C25.2907 11.8815 25.5769 12 25.8752 12C26.1736 12 26.4598 11.8815 26.6707 11.6705C26.8817 11.4595 27.0002 11.1734 27.0002 10.875V4.125C27.0002 3.82663 26.8817 3.54048 26.6707 3.3295C26.4598 3.11853 26.1736 3 25.8752 3H19.1252C18.8269 3 18.5407 3.11853 18.3298 3.3295C18.1188 3.54048 18.0002 3.82663 18.0002 4.125C18.0002 4.42337 18.1188 4.70952 18.3298 4.9205C18.5407 5.13147 18.8269 5.25 19.1252 5.25H22.9547L9.37075 17.541C9.26104 17.6401 9.17196 17.7599 9.10858 17.8935C9.04521 18.0271 9.00879 18.1718 9.0014 18.3195C8.99402 18.4672 9.01582 18.6149 9.06555 18.7541C9.11528 18.8934 9.19198 19.0199 9.29124 19.1295Z" fill="white"/>
</svg>
