<svg width="209" height="120" viewBox="0 0 209 120" fill="none" xmlns="http://www.w3.org/2000/svg">
<path d="M56.0264 23.7151H55.4509L55.1708 24.2179L37.1579 56.5505L19.3452 24.2219L19.066 23.7151H18.4874H3H2.0206V24.6945V28.8924V29.8718H3H8.17453V60.7327H3H2.0206V61.7121V65.9099V66.8894H3H21.4618H22.4412V65.9099V61.7121V60.7327H21.4618H16.2873V34.845L33.7332 66.384L34.0127 66.8894H34.5902H39.0005H39.5765L39.8564 66.386L57.406 34.8311V60.7327H52.2315H51.2521V61.7121V65.9099V66.8894H52.2315H70.6933H71.6727V65.9099V61.7121V60.7327H70.6933H65.5187V29.8718H70.6933H71.6727V28.8924V24.6945V23.7151H70.6933H56.0264ZM112.784 28.694V29.6734H113.764H118.897L104.687 58.7352L90.3836 29.6734H95.2031H96.1825V28.694V24.4736V23.4942H95.2031H76.6423H75.6629V24.4736V28.694V29.6734H76.6423H81.8078L99.8929 66.3432L100.162 66.8894H100.771H107.68H108.283L108.555 66.3509L127.05 29.6734H132.325H133.304V28.694V24.4736V23.4942H132.325H113.764H112.784V24.4736V28.694ZM191.371 23.7151H190.796L190.515 24.2179L172.503 56.5505L154.69 24.2219L154.411 23.7151H153.832H138.345H137.365V24.6945V28.8924V29.8718H138.345H143.519V60.7327H138.345H137.365V61.7121V65.9099V66.8894H138.345H156.806H157.786V65.9099V61.7121V60.7327H156.806H151.632V34.845L169.078 66.384L169.357 66.8894H169.935H174.345H174.921L175.201 66.386L192.751 34.8311V60.7327H187.576H186.597V61.7121V65.9099V66.8894H187.576H206.038H207.017V65.9099V61.7121V60.7327H206.038H200.863V29.8718H206.038H207.017V28.8924V24.6945V23.7151H206.038H191.371Z" fill="white" stroke="white" stroke-width="1.95881"/>
<path d="M6.96006 93.5771H5.47929V79.8272H11.2966V81.0964H6.96006V85.9618H10.4504V87.231H6.96006V93.5771ZM35.6243 92.3079V93.5771H32.0282V92.3079H33.0859V81.0964H32.0282V79.8272H35.6243V81.0964H34.5666V92.3079H35.6243ZM60.4287 87.8656V86.5964H64.2787V93.5771H63.644L63.094 92.2233C62.7979 92.731 62.4101 93.14 61.9306 93.4502C61.4511 93.7464 60.9293 93.8945 60.3652 93.8945C58.3203 93.8945 57.2979 92.9073 57.2979 90.9329V82.4714C57.2979 81.5265 57.587 80.8002 58.1652 80.2925C58.7434 79.7708 59.6107 79.5099 60.7671 79.5099C61.9235 79.5099 62.7979 79.7708 63.3902 80.2925C63.9825 80.8002 64.2787 81.5265 64.2787 82.4714V83.6349H62.7979V82.4714C62.7979 81.3432 62.128 80.7791 60.7883 80.7791C59.4485 80.7791 58.7787 81.3432 58.7787 82.4714V90.9329C58.7787 91.4688 58.8915 91.8848 59.1171 92.181C59.3428 92.4771 59.7517 92.6252 60.344 92.6252C60.9505 92.6252 61.5075 92.3855 62.0152 91.906C62.537 91.4265 62.7979 90.9611 62.7979 90.5098V87.8656H60.4287ZM88.0767 93.5771H86.5959V79.8272H88.0767V85.9618H92.244V79.8272H93.7248V93.5771H92.244V87.231H88.0767V93.5771ZM121.862 79.8272V81.0964H119.112V93.5771H117.631V81.0964H114.881V79.8272H121.862ZM145.97 92.3079V93.5771H142.373V92.3079H143.431V81.0964H142.373V79.8272H145.97V81.0964H144.912V92.3079H145.97ZM169.441 93.5771H167.96V79.8272H169.441L174.032 90.4041V79.8272H175.512V93.5771H174.032L169.441 83.0002V93.5771ZM200.953 87.8656V86.5964H204.803V93.5771H204.168L203.618 92.2233C203.322 92.731 202.934 93.14 202.455 93.4502C201.975 93.7464 201.453 93.8945 200.889 93.8945C198.845 93.8945 197.822 92.9073 197.822 90.9329V82.4714C197.822 81.5265 198.111 80.8002 198.689 80.2925C199.268 79.7708 200.135 79.5099 201.291 79.5099C202.448 79.5099 203.322 79.7708 203.914 80.2925C204.507 80.8002 204.803 81.5265 204.803 82.4714V83.6349H203.322V82.4714C203.322 81.3432 202.652 80.7791 201.312 80.7791C199.973 80.7791 199.303 81.3432 199.303 82.4714V90.9329C199.303 91.4688 199.416 91.8848 199.641 92.181C199.867 92.4771 200.276 92.6252 200.868 92.6252C201.475 92.6252 202.032 92.3855 202.539 91.906C203.061 91.4265 203.322 90.9611 203.322 90.5098V87.8656H200.953Z" fill="white"/>
<path d="M0.865234 5H208.173" stroke="#5D79FF" stroke-width="8.46153"/>
<path d="M0.865234 114.999C0.865234 114.999 64.006 110.769 104.519 110.769C145.032 110.769 208.173 114.999 208.173 114.999C208.173 114.999 160.577 110.769 104.198 110.769C47.8198 110.769 0.865234 114.999 0.865234 114.999Z" stroke="#19FF83" stroke-width="8.46153"/>
</svg>
