<svg width="66" height="66" viewBox="0 0 66 66" fill="none" xmlns="http://www.w3.org/2000/svg">
<circle cx="33" cy="33" r="31" fill="#232734" stroke="#14111B" stroke-width="4"/>
<path fill-rule="evenodd" clip-rule="evenodd" d="M27.375 26.25C27.0766 26.25 26.7905 26.3685 26.5795 26.5795C26.3685 26.7905 26.25 27.0766 26.25 27.375V40.125C26.25 40.746 26.754 41.25 27.375 41.25H40.125C40.4234 41.25 40.7095 41.1315 40.9205 40.9205C41.1315 40.7095 41.25 40.4234 41.25 40.125V34.125C41.25 33.8266 41.3685 33.5405 41.5795 33.3295C41.7905 33.1185 42.0766 33 42.375 33C42.6734 33 42.9595 33.1185 43.1705 33.3295C43.3815 33.5405 43.5 33.8266 43.5 34.125V40.125C43.5 41.0201 43.1444 41.8785 42.5115 42.5115C41.8785 43.1444 41.0201 43.5 40.125 43.5H27.375C26.4799 43.5 25.6214 43.1444 24.9885 42.5115C24.3556 41.8785 24 41.0201 24 40.125V27.375C24 26.4799 24.3556 25.6215 24.9885 24.9885C25.6214 24.3556 26.4799 24 27.375 24H34.875C35.1734 24 35.4595 24.1185 35.6705 24.3295C35.8815 24.5405 36 24.8266 36 25.125C36 25.4234 35.8815 25.7095 35.6705 25.9205C35.4595 26.1315 35.1734 26.25 34.875 26.25H27.375Z" fill="white"/>
<path fill-rule="evenodd" clip-rule="evenodd" d="M30.2912 37.1295C30.3904 37.2392 30.5102 37.3283 30.6437 37.3917C30.7773 37.455 30.9221 37.4915 31.0698 37.4988C31.2174 37.5062 31.3651 37.4844 31.5044 37.4347C31.6436 37.385 31.7717 37.3083 31.8812 37.209L45.7502 24.66V28.875C45.7502 29.1734 45.8688 29.4595 46.0797 29.6705C46.2907 29.8815 46.5769 30 46.8752 30C47.1736 30 47.4598 29.8815 47.6707 29.6705C47.8817 29.4595 48.0002 29.1734 48.0002 28.875V22.125C48.0002 21.8266 47.8817 21.5405 47.6707 21.3295C47.4598 21.1185 47.1736 21 46.8752 21H40.1252C39.8269 21 39.5407 21.1185 39.3298 21.3295C39.1188 21.5405 39.0002 21.8266 39.0002 22.125C39.0002 22.4234 39.1188 22.7095 39.3298 22.9205C39.5407 23.1315 39.8269 23.25 40.1252 23.25H43.9547L30.3707 35.541C30.261 35.6401 30.172 35.7599 30.1086 35.8935C30.0452 36.0271 30.0088 36.1718 30.0014 36.3195C29.994 36.4672 30.0158 36.6149 30.0656 36.7541C30.1153 36.8934 30.192 37.0199 30.2912 37.1295Z" fill="white"/>
</svg>
