<svg width="335" height="56" viewBox="0 0 335 56" fill="none" xmlns="http://www.w3.org/2000/svg">
<g opacity="0.5">
<path d="M80.9236 43.9615C78.003 44.0459 75.1182 43.3049 72.6044 41.8248C70.3397 40.4382 68.5179 38.4406 67.3512 36.0648C66.0929 33.5292 65.4525 30.735 65.4817 27.908C65.3924 24.9586 66.082 22.0374 67.482 19.4353C68.7656 17.1056 70.6749 15.1759 72.997 13.8611C75.3937 12.5739 78.088 11.9333 80.8114 12.0031C83.1021 11.9551 85.3711 12.452 87.4294 13.4524C89.2897 14.3779 90.9135 15.7123 92.1778 17.3543C93.444 19.0206 94.3769 20.9129 94.926 22.9284C95.4904 25.0032 95.6927 27.1588 95.5242 29.3015H71.221C71.187 31.4553 71.7987 33.5703 72.9783 35.3774C73.9319 36.7699 75.2689 37.8601 76.8294 38.5175C78.1373 39.0724 79.5394 39.375 80.961 39.4093C82.5059 39.4569 84.0429 39.1717 85.4664 38.5732C86.5936 38.0812 87.5869 37.3297 88.3641 36.3807L93.5239 37.8671C92.2775 39.7173 90.5879 41.2305 88.6071 42.2707C86.2324 43.4749 83.5878 44.0569 80.9236 43.9615ZM71.2584 25.1209H89.9531C89.9489 23.6603 89.5624 22.226 88.8315 20.9589C88.0805 19.6328 87.0072 18.5148 85.7094 17.7073C84.262 16.8393 82.5949 16.4009 80.9049 16.4438C79.3711 16.4282 77.8504 16.7254 76.4368 17.3171C75.0323 17.8947 73.8251 18.8623 72.9596 20.1042C71.9533 21.5961 71.366 23.328 71.2584 25.1209Z" fill="#F2F2FF"/>
<path d="M113.172 43.9615C110.811 43.9739 108.493 43.3304 106.479 42.1035C104.343 40.7804 102.615 38.8964 101.488 36.6594C100.243 33.9437 99.5992 30.9943 99.5992 28.0102C99.5992 25.0261 100.243 22.0767 101.488 19.361C102.615 17.1188 104.342 15.2287 106.479 13.8983C108.496 12.6786 110.812 12.0356 113.172 12.0402C115.364 11.9643 117.537 12.4642 119.472 13.4895C121.122 14.4049 122.491 15.7467 123.435 17.3728V1.87671H128.782V31.6055C128.782 32.646 128.782 34.151 128.913 36.1577C129.036 38.5271 129.355 40.8823 129.866 43.1997H124.838L123.435 38.5546C122.499 40.2012 121.129 41.5631 119.472 42.4937C117.539 43.5255 115.365 44.0318 113.172 43.9615ZM114.574 39.5022C115.827 39.543 117.071 39.2882 118.205 38.7585C119.339 38.2288 120.331 37.4394 121.099 36.455C122.711 33.9092 123.566 30.9624 123.566 27.9545C123.566 24.9465 122.711 21.9997 121.099 19.4538C120.297 18.5045 119.295 17.7413 118.165 17.2176C117.035 16.6939 115.803 16.4225 114.555 16.4225C113.308 16.4225 112.076 16.6939 110.946 17.2176C109.816 17.7413 108.814 18.5045 108.012 19.4538C106.411 22.0035 105.562 24.9488 105.562 27.9545C105.562 30.9601 106.411 33.9053 108.012 36.455C108.785 37.4434 109.783 38.2352 110.924 38.765C112.064 39.2948 113.316 39.5475 114.574 39.5022Z" fill="#F2F2FF"/>
<path d="M148.019 55.11C146.305 55.114 144.599 54.8763 142.953 54.4039C141.32 53.9553 139.802 53.1632 138.503 52.0814C137.193 50.9996 136.23 49.5587 135.737 47.9379L141.083 46.5072C141.307 47.2231 141.686 47.8818 142.193 48.437C142.7 48.9922 143.323 49.4307 144.018 49.7216C145.287 50.2466 146.645 50.5242 148.019 50.5392C151.291 50.5392 153.515 49.7588 154.674 48.2352C155.984 46.2372 156.601 43.8689 156.432 41.4904V37.3842C155.483 38.9717 154.145 40.2949 152.543 41.2303C150.653 42.2495 148.522 42.7437 146.374 42.661C144.067 42.6664 141.801 42.0568 139.812 40.8959C137.715 39.6479 136.007 37.8472 134.877 35.6933C133.631 33.0799 132.985 30.2241 132.985 27.3321C132.985 24.4402 133.631 21.5843 134.877 18.9709C136.053 16.8442 137.792 15.0774 139.906 13.8612C141.882 12.6609 144.151 12.0186 146.467 12.0032C148.618 11.9168 150.752 12.4181 152.637 13.4525C154.238 14.4053 155.574 15.74 156.525 17.3358L157.983 12.4863H161.872V40.357C161.872 45.2437 160.862 48.9226 158.843 51.5053C156.824 54.088 153.16 55.11 148.019 55.11ZM147.701 38.3875C149.251 38.4048 150.778 38.0205 152.132 37.2727C153.553 36.4531 154.688 35.2212 155.385 33.7424C157.03 29.6894 157.03 25.1606 155.385 21.1076C154.693 19.6302 153.556 18.403 152.132 17.5959C150.771 16.8681 149.246 16.4972 147.701 16.5182C146.491 16.4851 145.289 16.7215 144.182 17.2102C143.076 17.6989 142.094 18.4275 141.308 19.3425C139.487 21.6321 138.587 24.5129 138.784 27.425C138.59 30.3482 139.489 33.2395 141.308 35.5447C142.1 36.4485 143.085 37.1659 144.191 37.6447C145.297 38.1235 146.496 38.3519 147.701 38.3132V38.3875Z" fill="#F2F2FF"/>
<path d="M181.352 43.9614C178.4 44.0573 175.483 43.3162 172.939 41.8247C170.678 40.4334 168.858 38.4371 167.686 36.0647C166.428 33.5292 165.787 30.7349 165.817 27.9079C165.759 24.9459 166.495 22.0219 167.948 19.4352C169.257 17.093 171.2 15.162 173.556 13.861C175.946 12.5745 178.634 11.9338 181.352 12.003C183.648 11.9571 185.923 12.4538 187.989 13.4523C189.844 14.3779 191.461 15.7125 192.718 17.3542C193.984 19.0205 194.917 20.9128 195.466 22.9283C196.04 25.0014 196.243 27.1586 196.065 29.3014H171.687C171.653 31.4552 172.264 33.5702 173.444 35.3773C174.402 36.7656 175.738 37.8546 177.295 38.5174C178.609 39.0746 180.017 39.3773 181.445 39.4092C182.984 39.4553 184.515 39.1701 185.932 38.5731C187.062 38.0862 188.057 37.3338 188.83 36.3806L193.99 37.867C192.75 39.7164 191.067 41.2298 189.092 42.2706C186.699 43.4802 184.035 44.0622 181.352 43.9614ZM171.687 25.1208H190.288C190.284 23.6602 189.897 22.2259 189.166 20.9588C188.421 19.6288 187.346 18.5097 186.044 17.7072C184.598 16.8363 182.93 16.3976 181.24 16.4437C179.712 16.4307 178.198 16.7278 176.79 17.317C175.386 17.8946 174.179 18.8622 173.313 20.1041C172.325 21.5996 171.763 23.3333 171.687 25.1208Z" fill="#F2F2FF"/>
<path d="M200.065 43.2184V12.4677H204.01L205.412 17.1314C206.35 15.6204 207.631 14.3479 209.151 13.4153C210.907 12.3638 212.935 11.8471 214.984 11.9289C217.03 11.8296 219.062 12.32 220.835 13.341C222.318 14.2886 223.457 15.6816 224.088 17.3172C225.221 15.5505 226.818 14.1244 228.706 13.1923C230.594 12.3364 232.65 11.905 234.726 11.9289C236.203 11.7847 237.693 12.0062 239.063 12.5736C240.433 13.1409 241.64 14.0365 242.577 15.1805C244.252 17.6963 245.077 20.677 244.933 23.6903V43.2184H239.567V25.3068C239.582 23.8383 239.425 22.373 239.1 20.9404C238.847 19.6842 238.191 18.5434 237.231 17.6888C235.971 16.764 234.417 16.322 232.856 16.4439C231.799 16.4105 230.748 16.6252 229.79 17.0707C228.832 17.5162 227.993 18.1799 227.341 19.0081C225.828 21.2242 225.104 23.8796 225.285 26.5517V43.2742H219.919V25.3626C219.934 23.894 219.777 22.4287 219.452 20.9961C219.199 19.74 218.543 18.5991 217.582 17.7446C216.324 16.8167 214.77 16.3743 213.208 16.4997C212.136 16.4574 211.069 16.6676 210.094 17.1133C209.12 17.5589 208.265 18.2272 207.599 19.0638C206.05 21.2654 205.305 23.9271 205.487 26.6075V43.3299L200.065 43.2184Z" fill="#F2F2FF"/>
<path d="M251.345 43.2183V16.6296H246.952V12.4675H256.692V43.2183H251.345ZM256.692 3.9019L251.345 0V7.82239H256.692V3.9019Z" fill="#F2F2FF"/>
<path d="M262.431 43.2183V12.4675H266.376L267.778 17.1312C268.708 15.6141 269.99 14.34 271.517 13.4151C273.485 12.3322 275.719 11.8174 277.967 11.9287C281.78 11.9287 284.472 13.0126 286.043 15.1803C287.724 17.6939 288.556 20.6748 288.417 23.6901V43.2183H283.052V25.3067C283.063 23.8393 282.912 22.375 282.603 20.9402C282.376 19.6745 281.715 18.5258 280.733 17.6886C279.413 16.7566 277.805 16.3159 276.191 16.4438C275.043 16.3859 273.897 16.5865 272.839 17.0305C271.78 17.4745 270.836 18.1505 270.077 19.0079C268.441 21.1726 267.645 23.8507 267.834 26.5516V43.274L262.431 43.2183Z" fill="#F2F2FF"/>
<path d="M306.289 43.9615C303.928 43.9739 301.609 43.3304 299.596 42.1035C297.46 40.7804 295.732 38.8964 294.605 36.6594C293.36 33.9437 292.716 30.9943 292.716 28.0102C292.716 25.0261 293.36 22.0767 294.605 19.361C295.732 17.1188 297.459 15.2287 299.596 13.8983C301.613 12.6786 303.929 12.0356 306.289 12.0402C308.487 11.9663 310.665 12.466 312.608 13.4895C314.248 14.4105 315.61 15.7514 316.552 17.3728V1.87671H321.899V31.6055C321.899 32.646 321.899 34.151 322.03 36.1577C322.153 38.5271 322.472 40.8823 322.983 43.1997H317.955L316.552 38.5546C315.618 40.196 314.255 41.5567 312.608 42.4937C310.667 43.5237 308.488 44.0298 306.289 43.9615ZM307.691 39.5022C308.944 39.543 310.188 39.2882 311.322 38.7585C312.456 38.2288 313.448 37.4394 314.216 36.455C315.827 33.9092 316.683 30.9624 316.683 27.9545C316.683 24.9465 315.827 21.9997 314.216 19.4538C313.414 18.5045 312.412 17.7413 311.282 17.2176C310.152 16.6939 308.92 16.4225 307.672 16.4225C306.425 16.4225 305.193 16.6939 304.063 17.2176C302.932 17.7413 301.931 18.5045 301.129 19.4538C299.528 22.0035 298.679 24.9488 298.679 27.9545C298.679 30.9601 299.528 33.9053 301.129 36.455C301.892 37.4305 302.875 38.2144 303.999 38.7436C305.122 39.2729 306.355 39.5327 307.598 39.5022H307.691Z" fill="#F2F2FF"/>
<path d="M42.9171 7.4323L34.4857 1.33789V19.6211L42.9171 17.2614V7.4323Z" fill="#4019FF"/>
<path d="M26.0545 7.4323L17.6418 1.33789V24.3591L26.0545 21.9994V7.4323Z" fill="#4019FF"/>
<path d="M9.21046 7.4323L0.779114 1.33789V29.0786L9.21046 26.7189V7.4323Z" fill="#4019FF"/>
<path d="M47.1422 43.2182H38.7108V18.4504L47.1422 16.0907V43.2182ZM21.8481 23.1513V43.2182H30.2795V20.8102L21.8481 23.1513ZM5.02284 27.8707V43.1811H13.4542V25.511L5.02284 27.8707Z" fill="url(#paint0_linear_157_1473)"/>
<path d="M330.275 10.3834C329.691 10.3834 329.144 10.274 328.634 10.0552C328.131 9.83633 327.685 9.53643 327.296 9.15548C326.915 8.76642 326.615 8.32063 326.397 7.8181C326.178 7.30746 326.068 6.7644 326.068 6.18892C326.068 5.60534 326.178 5.05823 326.397 4.54759C326.615 4.03695 326.915 3.59116 327.296 3.21021C327.685 2.82115 328.131 2.5172 328.634 2.29836C329.144 2.07951 329.691 1.97009 330.275 1.97009C330.859 1.97009 331.402 2.07951 331.904 2.29836C332.415 2.5172 332.861 2.82115 333.242 3.21021C333.631 3.59116 333.935 4.03695 334.153 4.54759C334.372 5.05823 334.482 5.60534 334.482 6.18892C334.482 6.7644 334.372 7.30746 334.153 7.8181C333.935 8.32063 333.631 8.76642 333.242 9.15548C332.861 9.53643 332.415 9.83633 331.904 10.0552C331.402 10.274 330.859 10.3834 330.275 10.3834ZM330.275 9.6418C330.753 9.6418 331.199 9.55264 331.612 9.37432C332.034 9.196 332.403 8.94879 332.719 8.63268C333.035 8.30847 333.282 7.93968 333.46 7.5263C333.639 7.10483 333.728 6.65903 333.728 6.18892C333.728 5.71071 333.639 5.26491 333.46 4.85154C333.282 4.43006 333.035 4.06127 332.719 3.74516C332.403 3.42095 332.034 3.16968 331.612 2.99137C331.199 2.80494 330.753 2.71173 330.275 2.71173C329.797 2.71173 329.347 2.80494 328.925 2.99137C328.512 3.16968 328.147 3.42095 327.831 3.74516C327.515 4.06127 327.268 4.43006 327.09 4.85154C326.911 5.26491 326.822 5.71071 326.822 6.18892C326.822 6.65903 326.911 7.10483 327.09 7.5263C327.268 7.93968 327.515 8.30847 327.831 8.63268C328.147 8.94879 328.512 9.196 328.925 9.37432C329.347 9.55264 329.797 9.6418 330.275 9.6418ZM328.634 8.26794V3.79379H329.995C330.441 3.79379 330.818 3.83027 331.126 3.90322C331.442 3.97616 331.685 4.11396 331.856 4.31659C332.026 4.51112 332.111 4.80696 332.111 5.20412C332.111 5.3257 332.087 5.4716 332.038 5.64181C331.989 5.80392 331.888 5.95792 331.734 6.10382C331.58 6.24971 331.349 6.36724 331.041 6.4564L332.354 8.26794H331.308L330.068 6.57798H329.558V8.26794H328.634ZM329.558 5.87281H330.202C330.551 5.87281 330.802 5.81608 330.956 5.7026C331.11 5.58913 331.187 5.42702 331.187 5.21628C331.187 4.9407 331.09 4.75833 330.895 4.66917C330.701 4.58001 330.449 4.53543 330.141 4.53543H329.558V5.87281Z" fill="#F2F2FF"/>
</g>
<defs>
<linearGradient id="paint0_linear_157_1473" x1="14.4637" y1="3.93904" x2="29.8411" y2="38.4391" gradientUnits="userSpaceOnUse">
<stop stop-color="#9F8CFF"/>
<stop offset="1" stop-color="#4019FF"/>
</linearGradient>
</defs>
</svg>
