<svg width="273" height="28" viewBox="0 0 273 28" fill="none" xmlns="http://www.w3.org/2000/svg">
<path d="M0 8.10767H4.93218L9.50781 21.5435H9.76532L14.3013 8.10767H19.3458L12.3404 27.1616H7.00541L0 8.10767Z" fill="#494963"/>
<path d="M52.6165 18.1384V23.4074H60.4935V27.1616H42.8908V23.4338H47.9022V11.8749H43.3992V8.10764H52.3986V11.2229H52.6561C53.0915 10.264 53.7971 9.45209 54.6869 8.8861C55.5767 8.32011 56.6123 8.02447 57.6675 8.03519H60.9689V12.527H57.4497C54.4322 12.527 52.6165 14.7334 52.6165 18.1384Z" fill="#494963"/>
<path d="M76.3596 23.0254V27.1616H70.3314C66.9905 27.1616 65.0493 25.1857 65.0493 21.807V3.7278H58.6976V0H69.7702V21.3657C69.7702 22.4458 70.3116 23.0254 71.2888 23.0254H76.3596Z" fill="#494963"/>
<path d="M35.2317 13.9496C34.9808 14.4041 36.6843 15.3195 36.8758 17.6708C37.1597 21.0957 35.0733 23.3877 31.7191 23.3877C28.6027 23.3877 26.6417 20.8586 26.6417 17.6708C26.6417 13.6664 29.4676 10.92 33.0859 10.92C36.5919 10.92 39.4706 13.2317 41.3656 14.8717C40.395 10.4721 37.1597 7.62685 32.7822 7.62685C31.6472 7.59817 30.5228 7.85094 29.5099 8.36246C28.497 8.87399 27.6271 9.62828 26.9784 10.5577H26.7209V0.0197754H22.0066V27.1616H26.6285V24.7378H26.886C27.5184 25.6641 28.3756 26.4157 29.3777 26.9224C30.3798 27.4291 31.4942 27.6745 32.6171 27.6358C37.9586 27.6358 41.6231 23.6511 41.6231 17.7564C41.6231 17.0583 41.5769 16.6302 41.5769 16.6302C39.5235 14.9046 35.5487 13.3305 35.2317 13.9496Z" fill="#494963"/>
<path d="M28.4971 18.8695C28.6054 19.6794 29.0049 20.4225 29.6212 20.9607C30.2375 21.4989 31.0288 21.7956 31.8479 21.7956C32.667 21.7956 33.4583 21.4989 34.0746 20.9607C34.6909 20.4225 35.0904 19.6794 35.1987 18.8695C34.1249 18.4377 32.9251 18.4377 31.8512 18.8695C30.7607 19.2197 29.5876 19.2197 28.4971 18.8695Z" fill="#494963"/>
<path d="M77.1739 6.22007C76.7472 6.22007 76.3471 6.14006 75.9737 5.98003C75.6062 5.82 75.2802 5.6007 74.9957 5.32213C74.7172 5.03764 74.4979 4.71165 74.3378 4.34418C74.1778 3.97078 74.0978 3.57368 74.0978 3.15286C74.0978 2.72612 74.1778 2.32605 74.3378 1.95265C74.4979 1.57925 74.7172 1.25327 74.9957 0.974698C75.2802 0.690203 75.6062 0.467941 75.9737 0.307913C76.3471 0.147885 76.7472 0.0678711 77.1739 0.0678711C77.6006 0.0678711 77.9978 0.147885 78.3652 0.307913C78.7386 0.467941 79.0646 0.690203 79.3432 0.974698C79.6277 1.25327 79.8499 1.57925 80.01 1.95265C80.17 2.32605 80.25 2.72612 80.25 3.15286C80.25 3.57368 80.17 3.97078 80.01 4.34418C79.8499 4.71165 79.6277 5.03764 79.3432 5.32213C79.0646 5.6007 78.7386 5.82 78.3652 5.98003C77.9978 6.14006 77.6006 6.22007 77.1739 6.22007ZM77.1739 5.67775C77.5236 5.67775 77.8496 5.61255 78.1519 5.48216C78.4601 5.35177 78.7297 5.171 78.9609 4.93984C79.192 4.70276 79.3728 4.43309 79.5032 4.13081C79.6336 3.82261 79.6988 3.49662 79.6988 3.15286C79.6988 2.80317 79.6336 2.47719 79.5032 2.17491C79.3728 1.86671 79.192 1.59703 78.9609 1.36588C78.7297 1.1288 78.4601 0.945063 78.1519 0.814669C77.8496 0.678349 77.5236 0.610189 77.1739 0.610189C76.8242 0.610189 76.4953 0.678349 76.1871 0.814669C75.8848 0.945063 75.6181 1.1288 75.3869 1.36588C75.1558 1.59703 74.975 1.86671 74.8446 2.17491C74.7142 2.47719 74.649 2.80317 74.649 3.15286C74.649 3.49662 74.7142 3.82261 74.8446 4.13081C74.975 4.43309 75.1558 4.70276 75.3869 4.93984C75.6181 5.171 75.8848 5.35177 76.1871 5.48216C76.4953 5.61255 76.8242 5.67775 77.1739 5.67775ZM75.9737 4.67313V1.40144H76.9694C77.2954 1.40144 77.571 1.42811 77.7962 1.48145C78.0274 1.5348 78.2052 1.63556 78.3297 1.78373C78.4541 1.92598 78.5164 2.14231 78.5164 2.43273C78.5164 2.52164 78.4986 2.62832 78.463 2.75279C78.4275 2.87133 78.3534 2.98394 78.2408 3.09063C78.1281 3.19731 77.9592 3.28325 77.734 3.34845L78.6942 4.67313H77.9296L77.0228 3.43736H76.6494V4.67313H75.9737ZM76.6494 2.92171H77.1206C77.3754 2.92171 77.5592 2.88022 77.6718 2.79724C77.7844 2.71426 77.8407 2.59572 77.8407 2.44162C77.8407 2.24011 77.7696 2.10675 77.6273 2.04155C77.4851 1.97636 77.3013 1.94376 77.0761 1.94376H76.6494V2.92171Z" fill="#494963"/>
<path d="M134.916 17.9638C134.156 17.9638 133.504 17.7878 132.96 17.4358C132.416 17.0758 132 16.5838 131.712 15.9598C131.424 15.3358 131.28 14.6158 131.28 13.7998C131.28 12.9678 131.432 12.2438 131.736 11.6278C132.048 11.0038 132.484 10.5198 133.044 10.1758C133.604 9.83182 134.26 9.65982 135.012 9.65982C135.684 9.65982 136.288 9.81582 136.824 10.1278C137.368 10.4398 137.776 10.8878 138.048 11.4718L137.064 11.8318C136.888 11.4718 136.62 11.1798 136.26 10.9558C135.908 10.7238 135.472 10.6078 134.952 10.6078C134.48 10.6078 134.052 10.7278 133.668 10.9678C133.292 11.2078 132.992 11.5678 132.768 12.0478C132.544 12.5198 132.432 13.1038 132.432 13.7998C132.432 14.4718 132.54 15.0478 132.756 15.5278C132.972 16.0078 133.272 16.3758 133.656 16.6318C134.048 16.8878 134.492 17.0158 134.988 17.0158C135.508 17.0158 135.944 16.9038 136.296 16.6798C136.656 16.4558 136.928 16.1598 137.112 15.7918L138.096 16.1518C137.808 16.7438 137.384 17.1958 136.824 17.5078C136.264 17.8118 135.628 17.9638 134.916 17.9638ZM141.867 17.9638C141.523 17.9638 141.183 17.9038 140.847 17.7838C140.511 17.6638 140.203 17.4798 139.923 17.2318C139.651 16.9758 139.431 16.6518 139.263 16.2598C139.095 15.8678 139.011 15.4038 139.011 14.8678C139.011 14.3318 139.095 13.8678 139.263 13.4758C139.431 13.0838 139.651 12.7638 139.923 12.5158C140.203 12.2598 140.511 12.0718 140.847 11.9518C141.183 11.8318 141.523 11.7718 141.867 11.7718C142.211 11.7718 142.551 11.8318 142.887 11.9518C143.231 12.0718 143.539 12.2598 143.811 12.5158C144.091 12.7638 144.311 13.0838 144.471 13.4758C144.639 13.8678 144.723 14.3318 144.723 14.8678C144.723 15.4038 144.639 15.8678 144.471 16.2598C144.311 16.6518 144.091 16.9758 143.811 17.2318C143.539 17.4798 143.231 17.6638 142.887 17.7838C142.551 17.9038 142.211 17.9638 141.867 17.9638ZM141.867 17.0758C142.155 17.0758 142.435 16.9998 142.707 16.8478C142.979 16.6878 143.203 16.4478 143.379 16.1278C143.555 15.7998 143.643 15.3798 143.643 14.8678C143.643 14.3558 143.555 13.9398 143.379 13.6198C143.203 13.2918 142.979 13.0518 142.707 12.8998C142.435 12.7398 142.155 12.6598 141.867 12.6598C141.587 12.6598 141.307 12.7398 141.027 12.8998C140.755 13.0518 140.531 13.2918 140.355 13.6198C140.179 13.9398 140.091 14.3558 140.091 14.8678C140.091 15.3798 140.179 15.7998 140.355 16.1278C140.531 16.4478 140.755 16.6878 141.027 16.8478C141.307 16.9998 141.587 17.0758 141.867 17.0758ZM146.016 19.7518V11.8678H146.748L147.024 12.8038C147.208 12.4918 147.46 12.2438 147.78 12.0598C148.1 11.8678 148.492 11.7718 148.956 11.7718C149.412 11.7718 149.832 11.8958 150.216 12.1438C150.608 12.3838 150.92 12.7358 151.152 13.1998C151.392 13.6558 151.512 14.2118 151.512 14.8678C151.512 15.5158 151.392 16.0718 151.152 16.5358C150.92 16.9998 150.608 17.3558 150.216 17.6038C149.832 17.8438 149.412 17.9638 148.956 17.9638C148.492 17.9638 148.1 17.8718 147.78 17.6878C147.46 17.4958 147.208 17.2398 147.024 16.9198V19.7518H146.016ZM148.692 17.0998C149.204 17.0998 149.612 16.9038 149.916 16.5118C150.228 16.1198 150.384 15.5718 150.384 14.8678C150.384 14.1558 150.228 13.6078 149.916 13.2238C149.612 12.8318 149.204 12.6358 148.692 12.6358C148.18 12.6358 147.768 12.8318 147.456 13.2238C147.152 13.6078 147 14.1558 147 14.8678C147 15.5718 147.152 16.1198 147.456 16.5118C147.768 16.9038 148.18 17.0998 148.692 17.0998ZM152.417 19.7518V18.8638H152.825C153.113 18.8638 153.333 18.8398 153.485 18.7918C153.637 18.7518 153.757 18.6558 153.845 18.5038C153.941 18.3598 154.033 18.1358 154.121 17.8318L151.973 11.8798H153.089L154.553 16.4638L156.017 11.8798H157.121L155.009 18.0838C154.865 18.5078 154.717 18.8398 154.565 19.0798C154.421 19.3278 154.225 19.4998 153.977 19.5958C153.729 19.6998 153.381 19.7518 152.933 19.7518H152.417ZM157.957 17.8198V11.8678H158.689L159.013 12.9718C159.221 12.6118 159.501 12.3238 159.853 12.1078C160.213 11.8838 160.641 11.7718 161.137 11.7718V12.8158C161.081 12.8158 161.021 12.8158 160.957 12.8158C160.901 12.8158 160.845 12.8198 160.789 12.8278C160.109 12.8838 159.633 13.1198 159.361 13.5358C159.097 13.9518 158.965 14.5278 158.965 15.2638V17.8198H157.957ZM163.067 10.7398C162.867 10.7398 162.691 10.6678 162.539 10.5238C162.395 10.3718 162.323 10.1918 162.323 9.98382C162.323 9.77582 162.395 9.59982 162.539 9.45582C162.691 9.31182 162.867 9.23982 163.067 9.23982C163.275 9.23982 163.451 9.31182 163.595 9.45582C163.747 9.59982 163.823 9.77582 163.823 9.98382C163.823 10.1918 163.747 10.3718 163.595 10.5238C163.451 10.6678 163.275 10.7398 163.067 10.7398ZM162.563 17.8198V12.6718H161.735V11.8678H163.571V17.8198H162.563ZM167.823 20.1238C167.503 20.1238 167.183 20.0758 166.863 19.9798C166.551 19.8918 166.271 19.7438 166.023 19.5358C165.783 19.3278 165.611 19.0598 165.507 18.7318L166.515 18.4558C166.627 18.7678 166.811 18.9758 167.067 19.0798C167.323 19.1838 167.575 19.2358 167.823 19.2358C168.439 19.2358 168.855 19.0878 169.071 18.7918C169.295 18.4958 169.407 18.0598 169.407 17.4838V16.6918C169.223 17.0038 168.979 17.2518 168.675 17.4358C168.371 17.6198 167.983 17.7118 167.511 17.7118C167.071 17.7118 166.659 17.5998 166.275 17.3758C165.891 17.1438 165.579 16.8078 165.339 16.3678C165.107 15.9198 164.991 15.3798 164.991 14.7478C164.991 14.1078 165.107 13.5678 165.339 13.1278C165.579 12.6878 165.891 12.3518 166.275 12.1198C166.659 11.8878 167.071 11.7718 167.511 11.7718C167.983 11.7718 168.371 11.8678 168.675 12.0598C168.979 12.2438 169.223 12.4918 169.407 12.8038L169.683 11.8678H170.415V17.2558C170.415 18.1998 170.223 18.9118 169.839 19.3918C169.463 19.8798 168.791 20.1238 167.823 20.1238ZM167.763 16.8718C168.067 16.8718 168.343 16.7998 168.591 16.6558C168.847 16.5118 169.051 16.2838 169.203 15.9718C169.363 15.6598 169.443 15.2518 169.443 14.7478C169.443 14.2438 169.363 13.8358 169.203 13.5238C169.051 13.2118 168.847 12.9878 168.591 12.8518C168.343 12.7078 168.067 12.6358 167.763 12.6358C167.275 12.6358 166.871 12.8198 166.551 13.1878C166.239 13.5478 166.083 14.0678 166.083 14.7478C166.083 15.4278 166.239 15.9518 166.551 16.3198C166.871 16.6878 167.275 16.8718 167.763 16.8718ZM172.09 17.8198V9.80382H173.098V12.7678C173.266 12.4878 173.502 12.2518 173.806 12.0598C174.11 11.8678 174.514 11.7718 175.018 11.7718C175.738 11.7718 176.246 11.9838 176.542 12.4078C176.838 12.8238 176.986 13.3718 176.986 14.0518V17.8198H175.978V14.3518C175.978 14.0478 175.95 13.7678 175.894 13.5118C175.838 13.2478 175.714 13.0358 175.522 12.8758C175.338 12.7158 175.054 12.6358 174.67 12.6358C174.182 12.6358 173.798 12.8038 173.518 13.1398C173.238 13.4678 173.098 13.9518 173.098 14.5918V17.8198H172.09ZM180.3 17.8198C179.924 17.8198 179.632 17.7838 179.424 17.7118C179.224 17.6318 179.084 17.4838 179.004 17.2678C178.932 17.0518 178.896 16.7398 178.896 16.3318V12.6718H177.888V11.8678H178.896V10.3678H179.904V11.8678H181.056V12.6718H179.904V16.1638C179.904 16.4678 179.932 16.6718 179.988 16.7758C180.052 16.8798 180.228 16.9318 180.516 16.9318H181.056V17.8198H180.3ZM185.31 17.8198V16.9198C186.254 16.2238 187.058 15.5838 187.722 14.9998C188.394 14.4158 188.906 13.8718 189.258 13.3678C189.618 12.8558 189.798 12.3638 189.798 11.8918C189.798 11.4758 189.666 11.1398 189.402 10.8838C189.138 10.6278 188.77 10.4998 188.298 10.4998C187.922 10.4998 187.57 10.6038 187.242 10.8118C186.922 11.0118 186.714 11.3558 186.618 11.8438L185.61 11.5558C185.754 10.9718 186.066 10.5118 186.546 10.1758C187.026 9.83182 187.618 9.65982 188.322 9.65982C188.818 9.65982 189.254 9.74382 189.63 9.91182C190.014 10.0718 190.314 10.3078 190.53 10.6198C190.754 10.9318 190.866 11.3118 190.866 11.7598C190.866 12.2238 190.754 12.6798 190.53 13.1278C190.306 13.5678 189.998 13.9998 189.606 14.4238C189.214 14.8398 188.766 15.2558 188.262 15.6718C187.758 16.0798 187.226 16.4878 186.666 16.8958H191.082V17.8198H185.31ZM195.376 17.9638C194.344 17.9638 193.556 17.6078 193.012 16.8958C192.476 16.1758 192.208 15.1438 192.208 13.7998C192.208 12.4638 192.476 11.4398 193.012 10.7278C193.556 10.0158 194.344 9.65982 195.376 9.65982C196.408 9.65982 197.192 10.0158 197.728 10.7278C198.272 11.4398 198.544 12.4638 198.544 13.7998C198.544 15.1438 198.272 16.1758 197.728 16.8958C197.192 17.6078 196.408 17.9638 195.376 17.9638ZM197.248 15.5398C197.384 15.0598 197.452 14.4798 197.452 13.7998C197.452 12.7518 197.28 11.9478 196.936 11.3878C196.6 10.8278 196.08 10.5478 195.376 10.5478C194.856 10.5478 194.428 10.7078 194.092 11.0278L197.248 15.5398ZM195.376 17.0758C195.928 17.0758 196.372 16.8958 196.708 16.5358L193.54 11.9878C193.46 12.2358 193.4 12.5118 193.36 12.8158C193.32 13.1198 193.3 13.4478 193.3 13.7998C193.3 14.8478 193.468 15.6558 193.804 16.2238C194.148 16.7918 194.672 17.0758 195.376 17.0758ZM199.455 17.8198V16.9198C200.399 16.2238 201.203 15.5838 201.867 14.9998C202.539 14.4158 203.051 13.8718 203.403 13.3678C203.763 12.8558 203.943 12.3638 203.943 11.8918C203.943 11.4758 203.811 11.1398 203.547 10.8838C203.283 10.6278 202.915 10.4998 202.443 10.4998C202.067 10.4998 201.715 10.6038 201.387 10.8118C201.067 11.0118 200.859 11.3558 200.763 11.8438L199.755 11.5558C199.899 10.9718 200.211 10.5118 200.691 10.1758C201.171 9.83182 201.763 9.65982 202.467 9.65982C202.963 9.65982 203.399 9.74382 203.775 9.91182C204.159 10.0718 204.459 10.3078 204.675 10.6198C204.899 10.9318 205.011 11.3118 205.011 11.7598C205.011 12.2238 204.899 12.6798 204.675 13.1278C204.451 13.5678 204.143 13.9998 203.751 14.4238C203.359 14.8398 202.911 15.2558 202.407 15.6718C201.903 16.0798 201.371 16.4878 200.811 16.8958H205.227V17.8198H199.455ZM208.897 17.9638C208.361 17.9638 207.901 17.8758 207.517 17.6998C207.141 17.5238 206.841 17.2878 206.617 16.9918C206.393 16.6958 206.233 16.3678 206.137 16.0078L207.133 15.7198C207.221 16.1358 207.409 16.4758 207.697 16.7398C207.993 16.9958 208.397 17.1238 208.909 17.1238C209.437 17.1238 209.869 16.9918 210.205 16.7278C210.549 16.4558 210.721 16.0718 210.721 15.5758C210.721 15.2718 210.657 15.0238 210.529 14.8318C210.401 14.6318 210.237 14.4798 210.037 14.3758C209.837 14.2718 209.621 14.1958 209.389 14.1478C209.165 14.0998 208.949 14.0718 208.741 14.0638C208.541 14.0558 208.377 14.0518 208.249 14.0518V13.1398C208.473 13.1398 208.713 13.1278 208.969 13.1038C209.233 13.0798 209.481 13.0278 209.713 12.9478C209.953 12.8598 210.145 12.7278 210.289 12.5518C210.441 12.3678 210.517 12.1198 210.517 11.8078C210.517 11.3758 210.361 11.0518 210.049 10.8358C209.745 10.6118 209.381 10.4998 208.957 10.4998C208.469 10.4998 208.081 10.6238 207.793 10.8718C207.505 11.1198 207.321 11.4438 207.241 11.8438L206.257 11.5558C206.401 10.9878 206.705 10.5318 207.169 10.1878C207.641 9.83582 208.245 9.65982 208.981 9.65982C209.445 9.65982 209.873 9.72782 210.265 9.86382C210.657 9.99182 210.973 10.2078 211.213 10.5118C211.453 10.8078 211.573 11.2038 211.573 11.6998C211.573 12.1078 211.461 12.4758 211.237 12.8038C211.013 13.1318 210.689 13.3838 210.265 13.5598C210.865 13.7438 211.269 14.0198 211.477 14.3878C211.693 14.7478 211.801 15.1398 211.801 15.5638C211.801 16.0998 211.665 16.5478 211.393 16.9078C211.121 17.2598 210.765 17.5238 210.325 17.6998C209.885 17.8758 209.409 17.9638 208.897 17.9638ZM219.667 17.9638C219.203 17.9638 218.811 17.8718 218.491 17.6878C218.171 17.4958 217.919 17.2398 217.735 16.9198L217.471 17.8198H216.727V9.80382H217.735V12.8038C217.919 12.4918 218.171 12.2438 218.491 12.0598C218.811 11.8678 219.203 11.7718 219.667 11.7718C220.123 11.7718 220.543 11.8958 220.927 12.1438C221.319 12.3838 221.631 12.7358 221.863 13.1998C222.103 13.6558 222.223 14.2118 222.223 14.8678C222.223 15.5238 222.103 16.0838 221.863 16.5478C221.631 17.0038 221.319 17.3558 220.927 17.6038C220.543 17.8438 220.123 17.9638 219.667 17.9638ZM219.403 17.0998C219.915 17.0998 220.323 16.9038 220.627 16.5118C220.939 16.1198 221.095 15.5718 221.095 14.8678C221.095 14.1558 220.939 13.6078 220.627 13.2238C220.323 12.8318 219.915 12.6358 219.403 12.6358C218.891 12.6358 218.479 12.8318 218.167 13.2238C217.863 13.6078 217.711 14.1558 217.711 14.8678C217.711 15.5718 217.863 16.1198 218.167 16.5118C218.479 16.9038 218.891 17.0998 219.403 17.0998ZM223.128 19.7518V18.8638H223.536C223.824 18.8638 224.044 18.8398 224.196 18.7918C224.348 18.7518 224.468 18.6558 224.556 18.5038C224.652 18.3598 224.744 18.1358 224.832 17.8318L222.684 11.8798H223.8L225.264 16.4638L226.728 11.8798H227.832L225.72 18.0838C225.576 18.5078 225.428 18.8398 225.276 19.0798C225.132 19.3278 224.936 19.4998 224.688 19.5958C224.44 19.6998 224.092 19.7518 223.644 19.7518H223.128ZM233.315 17.8198L231.191 11.8678H232.283L233.843 16.4998L235.391 11.8678H236.483L234.359 17.8198H233.315ZM240.268 17.9638C239.804 17.9638 239.412 17.8718 239.092 17.6878C238.772 17.4958 238.52 17.2398 238.336 16.9198L238.072 17.8198H237.328V9.80382H238.336V12.8038C238.52 12.4918 238.772 12.2438 239.092 12.0598C239.412 11.8678 239.804 11.7718 240.268 11.7718C240.724 11.7718 241.144 11.8958 241.528 12.1438C241.92 12.3838 242.232 12.7358 242.464 13.1998C242.704 13.6558 242.824 14.2118 242.824 14.8678C242.824 15.5238 242.704 16.0838 242.464 16.5478C242.232 17.0038 241.92 17.3558 241.528 17.6038C241.144 17.8438 240.724 17.9638 240.268 17.9638ZM240.004 17.0998C240.516 17.0998 240.924 16.9038 241.228 16.5118C241.54 16.1198 241.696 15.5718 241.696 14.8678C241.696 14.1558 241.54 13.6078 241.228 13.2238C240.924 12.8318 240.516 12.6358 240.004 12.6358C239.492 12.6358 239.08 12.8318 238.768 13.2238C238.464 13.6078 238.312 14.1558 238.312 14.8678C238.312 15.5718 238.464 16.1198 238.768 16.5118C239.08 16.9038 239.492 17.0998 240.004 17.0998ZM244.125 17.8198V11.8678H244.857L245.181 12.9718C245.389 12.6118 245.669 12.3238 246.021 12.1078C246.381 11.8838 246.809 11.7718 247.305 11.7718V12.8158C247.249 12.8158 247.189 12.8158 247.125 12.8158C247.069 12.8158 247.013 12.8198 246.957 12.8278C246.277 12.8838 245.801 13.1198 245.529 13.5358C245.265 13.9518 245.133 14.5278 245.133 15.2638V17.8198H244.125ZM249.607 17.8198C249.231 17.8198 248.939 17.7838 248.731 17.7118C248.531 17.6318 248.391 17.4838 248.311 17.2678C248.239 17.0518 248.203 16.7398 248.203 16.3318V9.81582H249.211V16.1638C249.211 16.4678 249.243 16.6718 249.307 16.7758C249.371 16.8798 249.543 16.9318 249.823 16.9318H250.051V17.8198H249.607ZM255.47 10.7398C255.27 10.7398 255.094 10.6678 254.942 10.5238C254.798 10.3718 254.726 10.1918 254.726 9.98382C254.726 9.77582 254.798 9.59982 254.942 9.45582C255.094 9.31182 255.27 9.23982 255.47 9.23982C255.678 9.23982 255.854 9.31182 255.998 9.45582C256.15 9.59982 256.226 9.77582 256.226 9.98382C256.226 10.1918 256.15 10.3718 255.998 10.5238C255.854 10.6678 255.678 10.7398 255.47 10.7398ZM254.966 17.8198V12.6718H254.138V11.8678H255.974V17.8198H254.966ZM257.778 17.8198V11.8678H258.521L258.786 12.7678C258.954 12.4878 259.19 12.2518 259.494 12.0598C259.798 11.8678 260.202 11.7718 260.706 11.7718C261.426 11.7718 261.934 11.9838 262.23 12.4078C262.526 12.8238 262.674 13.3718 262.674 14.0518V17.8198H261.666V14.3518C261.666 14.0478 261.638 13.7678 261.582 13.5118C261.526 13.2478 261.402 13.0358 261.21 12.8758C261.026 12.7158 260.742 12.6358 260.358 12.6358C259.87 12.6358 259.486 12.8038 259.206 13.1398C258.926 13.4678 258.786 13.9518 258.786 14.5918V17.8198H257.778ZM266.587 17.9638C266.019 17.9638 265.527 17.8318 265.111 17.5678C264.695 17.2958 264.375 16.9278 264.151 16.4638C263.927 15.9998 263.815 15.4678 263.815 14.8678C263.815 14.2758 263.931 13.7478 264.163 13.2838C264.403 12.8118 264.739 12.4438 265.171 12.1798C265.603 11.9078 266.111 11.7718 266.695 11.7718C267.231 11.7718 267.691 11.9038 268.075 12.1678C268.459 12.4318 268.747 12.7478 268.939 13.1158L268.015 13.4518C267.887 13.2118 267.699 13.0198 267.451 12.8758C267.203 12.7318 266.927 12.6598 266.623 12.6598C266.327 12.6598 266.047 12.7398 265.783 12.8998C265.519 13.0518 265.307 13.2918 265.147 13.6198C264.987 13.9398 264.907 14.3518 264.907 14.8558C264.907 15.3518 264.987 15.7678 265.147 16.1038C265.315 16.4318 265.527 16.6758 265.783 16.8358C266.047 16.9958 266.327 17.0758 266.623 17.0758C266.951 17.0758 267.235 17.0038 267.475 16.8598C267.723 16.7078 267.911 16.5198 268.039 16.2958L268.963 16.6318C268.739 17.0158 268.419 17.3358 268.003 17.5918C267.587 17.8398 267.115 17.9638 266.587 17.9638ZM270.583 17.9638C270.375 17.9638 270.195 17.8878 270.043 17.7358C269.891 17.5838 269.815 17.4038 269.815 17.1958C269.815 16.9798 269.891 16.7958 270.043 16.6438C270.195 16.4918 270.375 16.4158 270.583 16.4158C270.799 16.4158 270.983 16.4918 271.135 16.6438C271.287 16.7958 271.363 16.9798 271.363 17.1958C271.363 17.4038 271.287 17.5838 271.135 17.7358C270.983 17.8878 270.799 17.9638 270.583 17.9638Z" fill="#494963"/>
</svg>
